<?xml version="1.0" encoding="UTF-8"?>
<svg width="9px" height="15px" viewBox="0 0 9 15" version="1.1" xmlns="http://www.w3.org/2000/svg" xmlns:xlink="http://www.w3.org/1999/xlink">
    <!-- Generator: Sketch 49.3 (51167) - http://www.bohemiancoding.com/sketch -->
    <title>layer</title>
    <desc>Created with Sketch.</desc>
    <defs></defs>
    <g id="Campaign-Page" stroke="none" stroke-width="1" fill="none" fill-rule="evenodd">
        <g id="Maverick-O-Meter-01-Ink-Blot-test-1" transform="translate(-118.000000, -1132.000000)" fill="#000000">
            <g id="Come-alive-in-the-living-room" transform="translate(-259.000000, 808.000000)">
                <path d="M378.802368,324.625261 C378.483051,324.338024 377.975291,324.347338 377.668255,324.646065 C377.361219,324.944791 377.371175,325.419809 377.690492,325.707046 L384.038194,331.417021 L377.690492,337.126997 C377.371175,337.414234 377.361219,337.889251 377.668255,338.187977 C377.975291,338.486704 378.483051,338.496018 378.802368,338.208781 C378.802368,338.208781 385.751103,331.963634 385.776081,331.939333 C385.926271,331.793207 386.000612,331.604899 385.999996,331.417021 C386.000612,331.229143 385.926271,331.040835 385.776081,330.894709 C385.751103,330.870408 378.802368,324.625261 378.802368,324.625261 Z" id="layer" transform="translate(381.722168, 331.417021) rotate(-180.000000) translate(-381.722168, -331.417021) "></path>
            </g>
        </g>
    </g>
</svg>