<?xml version="1.0" encoding="UTF-8"?>
<svg width="32px" height="32px" viewBox="0 0 32 32" version="1.1" xmlns="http://www.w3.org/2000/svg" xmlns:xlink="http://www.w3.org/1999/xlink">
    <!-- Generator: Sketch 49.2 (51160) - http://www.bohemiancoding.com/sketch -->
    <title>Facebook</title>
    <desc>Created with Sketch.</desc>
    <defs></defs>
    <g id="Campaign-Page" stroke="none" stroke-width="1" fill="none" fill-rule="evenodd">
        <g id="Maverick-O-Meter-07" transform="translate(-175.000000, -1827.000000)">
            <g id="Maverick-)-Meter" transform="translate(0.000000, 1411.000000)">
                <g id="Page-1" transform="translate(134.000000, 65.000000)">
                    <g id="Facebook" transform="translate(41.000000, 351.000000)">
                        <circle id="Base" fill="#000000" cx="16" cy="16" r="16"></circle>
                        <path d="M13.6676666,24 L13.6676666,16.6804965 L11,16.6804965 L11,13.8845289 L13.6683094,13.8845289 L13.6683094,11.7690577 C13.6683094,9.33633258 15.2560531,8 17.6055282,8 C18.7304478,8 19.7178059,8.070649 20,8.10530701 L20,10.6853287 L18.3319049,10.6846622 C17.0539961,10.6846622 16.8148704,11.2458552 16.8148704,12.0689828 L16.8148704,13.8845289 L19.8727234,13.8845289 L19.475466,16.6804965 L16.8148704,16.6804965 L16.8148704,24 L13.6676666,24 L13.6676666,24 Z" id="Facebook-Icon" fill="#FFFFFF"></path>
                    </g>
                </g>
            </g>
        </g>
    </g>
</svg>