<?xml version="1.0" encoding="UTF-8"?>
<svg width="9px" height="15px" viewBox="0 0 9 15" version="1.1" xmlns="http://www.w3.org/2000/svg" xmlns:xlink="http://www.w3.org/1999/xlink">
    <!-- Generator: Sketch 49.3 (51167) - http://www.bohemiancoding.com/sketch -->
    <title>layer</title>
    <desc>Created with Sketch.</desc>
    <defs></defs>
    <g id="Campaign-Page" stroke="none" stroke-width="1" fill="none" fill-rule="evenodd">
        <g id="Maverick-O-Meter-01-Ink-Blot-test-1" transform="translate(-1314.000000, -1132.000000)" fill="#000000">
            <g id="Come-alive-in-the-living-room" transform="translate(-259.000000, 808.000000)">
                <path d="M1574.80237,324.625261 C1574.48305,324.338024 1573.97529,324.347338 1573.66825,324.646065 C1573.36122,324.944791 1573.37117,325.419809 1573.69049,325.707046 L1580.03819,331.417021 L1573.69049,337.126997 C1573.37117,337.414234 1573.36122,337.889251 1573.66825,338.187977 C1573.97529,338.486704 1574.48305,338.496018 1574.80237,338.208781 C1574.80237,338.208781 1581.7511,331.963634 1581.77608,331.939333 C1581.92627,331.793207 1582.00061,331.604899 1582,331.417021 C1582.00061,331.229143 1581.92627,331.040835 1581.77608,330.894709 C1581.7511,330.870408 1574.80237,324.625261 1574.80237,324.625261 Z" id="layer" transform="translate(1577.722168, 331.417021) scale(-1, 1) rotate(-180.000000) translate(-1577.722168, -331.417021) "></path>
            </g>
        </g>
    </g>
</svg>