<?xml version="1.0" encoding="UTF-8"?>
<svg width="32px" height="32px" viewBox="0 0 32 32" version="1.1" xmlns="http://www.w3.org/2000/svg" xmlns:xlink="http://www.w3.org/1999/xlink">
    <!-- Generator: Sketch 49.3 (51167) - http://www.bohemiancoding.com/sketch -->
    <title>noun_258810</title>
    <desc>Created with Sketch.</desc>
    <defs></defs>
    <g id="Campaign-Page" stroke="none" stroke-width="1" fill="none" fill-rule="evenodd">
        <g id="Maverick-O-Meter-07" transform="translate(-1258.000000, -1484.000000)">
            <g id="Maverick-)-Meter" transform="translate(0.000000, 1415.000000)">
                <g id="noun_258810" transform="translate(1258.000000, 69.000000)">
                    <path d="M16,0 C7.168,0 0,7.168 0,16 C0,24.832 7.168,32 16,32 C24.832,32 32,24.832 32,16 C32,7.168 24.832,0 16,0 Z" id="Shape" fill="#000000" fill-rule="nonzero"></path>
                    <path d="M23.372549,19.0469925 L19.7124183,15.5 L21.1830065,14.0620301 L22.2941176,15.1484962 C22.130719,11.7293233 19.2222222,9.01315789 15.6928105,9.01315789 C12.0326797,9.01315789 9.05882353,11.9210526 9.05882353,15.5 C9.05882353,19.0789474 12.0326797,21.9868421 15.6928105,21.9868421 C17.8169935,21.9868421 19.8431373,20.9642857 21.0849673,19.2706767 L21.1176471,19.2387218 L22.620915,20.6766917 C20.9542484,22.7857143 18.4379085,24 15.6928105,24 C10.8888889,24 7,20.1654135 7,15.5 C7,10.8345865 10.9215686,7 15.6928105,7 C20.3660131,7 24.2222222,10.6428571 24.3856209,15.1804511 L25.5294118,14.0620301 L27,15.5 L23.372549,19.0469925 Z" id="Path" fill="#FFFFFF"></path>
                </g>
            </g>
        </g>
    </g>
</svg>