<?xml version="1.0" encoding="UTF-8"?>
<svg width="32px" height="32px" viewBox="0 0 32 32" version="1.1" xmlns="http://www.w3.org/2000/svg" xmlns:xlink="http://www.w3.org/1999/xlink">
    <!-- Generator: Sketch 49.2 (51160) - http://www.bohemiancoding.com/sketch -->
    <title>Twitter</title>
    <desc>Created with Sketch.</desc>
    <defs></defs>
    <g id="Campaign-Page" stroke="none" stroke-width="1" fill="none" fill-rule="evenodd">
        <g id="Maverick-O-Meter-07" transform="translate(-135.000000, -1827.000000)">
            <g id="Maverick-)-Meter" transform="translate(0.000000, 1411.000000)">
                <g id="Page-1" transform="translate(134.000000, 65.000000)">
                    <g id="Twitter" transform="translate(1.000000, 351.000000)">
                        <path d="M16,32 C24.836556,32 32,24.836556 32,16 C32,7.163444 24.836556,0 16,0 C7.163444,0 0,7.163444 0,16 C0,24.836556 7.163444,32 16,32 Z" id="Base" fill="#000000"></path>
                        <path d="M22.3629086,13.237981 C22.3689126,13.3783108 22.3709139,13.51994 22.3709139,13.6622189 C22.3709139,17.9988006 19.0693796,23 13.0320213,23 C11.1774516,23 9.45296865,22.4575212 8,21.5245877 C8.25683789,21.5557721 8.51767845,21.570065 8.78252168,21.570065 C10.3202135,21.570065 11.736491,21.0464268 12.8599066,20.1648176 C11.4236157,20.1407796 10.2108072,19.1909545 9.79252835,17.8870565 C9.99332889,17.926037 10.2001334,17.9468266 10.4116077,17.9468266 C10.7098065,17.9468266 10.9993329,17.9058971 11.2768512,17.8311844 C9.77384923,17.5290855 8.64176117,16.2024488 8.64176117,14.613993 L8.64176117,14.5724138 C9.08472315,14.8166917 9.59172782,14.9654673 10.1300867,14.9823588 C9.24816544,14.3924538 8.66844563,13.3887056 8.66844563,12.2511244 C8.66844563,11.6488756 8.82988659,11.0862569 9.11407605,10.6002999 C10.7324883,12.5863568 13.1521014,13.8915542 15.8799199,14.0305847 C15.8238826,13.7902049 15.7951968,13.5374813 15.7951968,13.2815092 C15.7951968,11.4689155 17.2648432,10 19.078052,10 C20.0220147,10 20.8745831,10.3989005 21.472982,11.0362319 C22.2221481,10.8894053 22.9239493,10.6165417 23.5590394,10.2403798 C23.3128753,11.0050475 22.7931955,11.6488756 22.1140761,12.0542729 C22.778519,11.9776112 23.4122748,11.8002499 24,11.5390805 C23.5590394,12.1972014 23.0040027,12.7741129 22.3629086,13.237981 L22.3629086,13.237981 Z" id="Twitter-Icon" fill="#FFFFFF"></path>
                    </g>
                </g>
            </g>
        </g>
    </g>
</svg>